<svg xmlns="http://www.w3.org/2000/svg" class="graphdiagram" viewBox="-629.2183913745491 -495.79074530559416 1551 970"><g class="layer relationships"><g class="related-pair"><g class="relationship" transform="translate(33.00000000000001,-27.000000000000007) rotate(127.77082589593459)"><path class="relationship" d="M 32.39361212978007 1 L 432.72009324519263 1 L 432.72009324519263 4 L 440.72009324519263 0 L 432.72009324519263 -4 L 432.72009324519263 -1 L 32.39361212978007 -1 Z" fill="rgba(0, 0, 0, 0.298039)" stroke="rgb(51, 51, 51)" stroke-width="0px"/><text class="type" text-anchor="middle" baseline-shift="30%" alignment-baseline="alphabetic" transform="rotate(180)" x="-232.55685268748636" y="0" font-size="14px" font-family="&quot;Helvetica Neue&quot;, Helvetica, Arial, sans-serif">:DEPENDS_ON</text></g></g><g class="related-pair"><g class="relationship" transform="translate(33.00000000000001,-27.000000000000007) rotate(46.838794780894574)"><path class="relationship" d="M 32.39361212978007 1 L 349.75127200555835 1 L 349.75127200555835 4 L 357.75127200555835 0 L 349.75127200555835 -4 L 349.75127200555835 -1 L 32.39361212978007 -1 Z" fill="rgba(0, 0, 0, 0.298039)" stroke="rgb(51, 51, 51)" stroke-width="0px"/><text class="type" text-anchor="middle" baseline-shift="30%" alignment-baseline="alphabetic" x="191.07244206766921" y="0" font-size="14px" font-family="&quot;Helvetica Neue&quot;, Helvetica, Arial, sans-serif">:DEPENDS_ON</text></g></g><g class="related-pair"><g class="relationship" transform="translate(33.00000000000001,-27.000000000000007) rotate(0)"><path class="relationship" d="M 32.39361212978007 1 L 507.47716536306564 1 L 507.47716536306564 4 L 515.4771653630656 0 L 507.47716536306564 -4 L 507.47716536306564 -1 L 32.39361212978007 -1 Z" fill="rgba(0, 0, 0, 0.298039)" stroke="rgb(51, 51, 51)" stroke-width="0px"/><text class="type" text-anchor="middle" baseline-shift="30%" alignment-baseline="alphabetic" x="269.93538874642286" y="0" font-size="14px" font-family="&quot;Helvetica Neue&quot;, Helvetica, Arial, sans-serif">:DEPENDS_ON</text></g></g><g class="related-pair"><g class="relationship" transform="translate(33.00000000000001,-196.42206298828148) rotate(90)"><path class="relationship" d="M 23.514786749969698 1 L 129.0284508585014 1 L 129.0284508585014 4 L 137.0284508585014 0 L 129.0284508585014 -4 L 129.0284508585014 -1 L 23.514786749969698 -1 Z" fill="rgba(0, 0, 0, 0.298039)" stroke="rgb(51, 51, 51)" stroke-width="0px"/><text class="type" text-anchor="middle" baseline-shift="30%" alignment-baseline="alphabetic" x="76.27161880423554" y="0" font-size="14px" font-family="&quot;Helvetica Neue&quot;, Helvetica, Arial, sans-serif">:HOSTED_ON</text></g></g><g class="related-pair"><g class="relationship" transform="translate(155.2022802734376,-196.42206298828148) rotate(125.80249925810016)"><path class="relationship" d="M 23.514786749969698 1 L 168.5016552441674 1 L 168.5016552441674 4 L 176.5016552441674 0 L 168.5016552441674 -4 L 168.5016552441674 -1 L 23.514786749969698 -1 Z" fill="rgba(0, 0, 0, 0.298039)" stroke="rgb(51, 51, 51)" stroke-width="0px"/><text class="type" text-anchor="middle" baseline-shift="30%" alignment-baseline="alphabetic" transform="rotate(180)" x="-96.00822099706856" y="0" font-size="14px" font-family="&quot;Helvetica Neue&quot;, Helvetica, Arial, sans-serif">:HOSTED_ON</text></g></g><g class="related-pair"><g class="relationship" transform="translate(33.00000000000001,-391.5949047851567) rotate(90)"><path class="relationship" d="M 46.82356649331434 1 L 163.6580550469055 1 L 163.6580550469055 4 L 171.6580550469055 0 L 163.6580550469055 -4 L 163.6580550469055 -1 L 46.82356649331434 -1 Z" fill="rgba(0, 0, 0, 0.298039)" stroke="rgb(51, 51, 51)" stroke-width="0px"/><text class="type" text-anchor="middle" baseline-shift="30%" alignment-baseline="alphabetic" x="105.24081077010993" y="0" font-size="14px" font-family="&quot;Helvetica Neue&quot;, Helvetica, Arial, sans-serif">:RUNS_ON</text></g></g><g class="related-pair"><g class="relationship" transform="translate(190.30805664062467,-351.60192626953136) rotate(102.74724564380075)"><path class="relationship" d="M 41.630579194643325 1 L 127.58645618147432 1 L 127.58645618147432 4 L 135.58645618147432 0 L 127.58645618147432 -4 L 127.58645618147432 -1 L 41.630579194643325 -1 Z" fill="rgba(0, 0, 0, 0.298039)" stroke="rgb(51, 51, 51)" stroke-width="0px"/><text class="type" text-anchor="middle" baseline-shift="30%" alignment-baseline="alphabetic" transform="rotate(180)" x="-84.60851768805881" y="0" font-size="14px" font-family="&quot;Helvetica Neue&quot;, Helvetica, Arial, sans-serif">:RUNS_ON</text></g></g></g><g class="layer nodes"><circle class="node node-id-0" r="26.893612129780067" fill="rgb(247, 247, 249)" stroke="rgba(0, 0, 0, 0.298039)" stroke-width="1px" cx="33.00000000000001" cy="-27.000000000000007"/><g class="caption"><text class="caption node" text-anchor="middle" alignment-baseline="central" x="33.00000000000001" y="-27.000000000000007" fill="rgb(51, 51, 51)" font-size="14px" font-family="&quot;Helvetica Neue&quot;, Helvetica, Arial, sans-serif">Server</text></g><circle class="node node-id-1" r="47.81698066728258" fill="rgb(247, 247, 249)" stroke="rgba(0, 0, 0, 0.298039)" stroke-width="1px" cx="-269.6000000000005" cy="363.5200000000002"/><g class="caption"><text class="caption node" text-anchor="middle" alignment-baseline="central" x="-269.6000000000005" y="363.5200000000002" fill="rgb(51, 51, 51)" font-size="14px" font-family="&quot;Helvetica Neue&quot;, Helvetica, Arial, sans-serif">PowerSupply</text></g><circle class="node node-id-2" r="62.44984196579333" fill="rgb(247, 247, 249)" stroke="rgba(0, 0, 0, 0.298039)" stroke-width="1px" cx="324.20228027343774" cy="283.5199999999999"/><g class="caption"><text class="caption node" text-anchor="middle" alignment-baseline="central" x="324.20228027343774" y="283.5199999999999" fill="rgb(51, 51, 51)" font-size="14px" font-family="&quot;Helvetica Neue&quot;, Helvetica, Arial, sans-serif">BackUpGenerator</text></g><circle class="node node-id-3" r="28.001516277559524" fill="rgb(247, 247, 249)" stroke="rgba(0, 0, 0, 0.298039)" stroke-width="1px" cx="581.9786816406252" cy="-27.000000000000007"/><g class="caption"><text class="caption node" text-anchor="middle" alignment-baseline="central" x="581.9786816406252" y="-27.000000000000007" fill="rgb(51, 51, 51)" font-size="14px" font-family="&quot;Helvetica Neue&quot;, Helvetica, Arial, sans-serif">AirCon</text></g><circle class="node node-id-4" r="18.014786749969698" fill="rgb(247, 247, 249)" stroke="rgba(0, 0, 0, 0.298039)" stroke-width="1px" cx="33.00000000000001" cy="-196.42206298828148"/><g class="caption"><text class="caption node" text-anchor="middle" alignment-baseline="central" x="33.00000000000001" y="-196.42206298828148" fill="rgb(51, 51, 51)" font-size="14px" font-family="&quot;Helvetica Neue&quot;, Helvetica, Arial, sans-serif">VM</text></g><circle class="node node-id-5" r="18.014786749969698" fill="rgb(247, 247, 249)" stroke="rgba(0, 0, 0, 0.298039)" stroke-width="1px" cx="155.2022802734376" cy="-196.42206298828148"/><g class="caption"><text class="caption node" text-anchor="middle" alignment-baseline="central" x="155.2022802734376" y="-196.42206298828148" fill="rgb(51, 51, 51)" font-size="14px" font-family="&quot;Helvetica Neue&quot;, Helvetica, Arial, sans-serif">VM</text></g><circle class="node node-id-6" r="41.32356649331434" fill="rgb(247, 247, 249)" stroke="rgba(0, 0, 0, 0.298039)" stroke-width="1px" cx="33.00000000000001" cy="-391.5949047851567"/><g class="caption"><text class="caption node" text-anchor="middle" alignment-baseline="central" x="33.00000000000001" y="-391.5949047851567" fill="rgb(51, 51, 51)" font-size="14px" font-family="&quot;Helvetica Neue&quot;, Helvetica, Arial, sans-serif">Application</text></g><circle class="node node-id-7" r="36.130579194643325" fill="rgb(247, 247, 249)" stroke="rgba(0, 0, 0, 0.298039)" stroke-width="1px" cx="190.30805664062467" cy="-351.60192626953136"/><g class="caption"><text class="caption node" text-anchor="middle" alignment-baseline="central" x="190.30805664062467" y="-351.60192626953136" fill="rgb(51, 51, 51)" font-size="14px" font-family="&quot;Helvetica Neue&quot;, Helvetica, Arial, sans-serif">Database</text></g></g><g class="layer properties"><g class="speech-bubble relationship-speech-bubble" transform="translate(-109.44215128620229,156.82851592956925) "><path class="speech-bubble-outline" transform="scale(1,1) " d="M 0 0 L 16 12 L 237.4520034790039 12 A 4 4 0 0 1 241.4520034790039 16 L 241.4520034790039 44 A 4 4 0 0 1 237.4520034790039 48 L 16 48 A 4 4 0 0 1 12 44 L 12 16 Z" fill="rgb(255, 255, 255)" stroke="rgba(0, 0, 0, 0.498039)" stroke-width="1px"/><text class="speech-bubble-content property-key" x="149.04200744628906" y="23" alignment-baseline="central" text-anchor="end" font-size="14px" font-family="&quot;Helvetica Neue&quot;, Helvetica, Arial, sans-serif" xml:space="preserve">impact_group: </text><text class="speech-bubble-content property-value" x="149.04200744628906" y="23" alignment-baseline="central" font-size="14px" font-family="&quot;Helvetica Neue&quot;, Helvetica, Arial, sans-serif">power</text><text class="speech-bubble-content property-key" x="149.04200744628906" y="37" alignment-baseline="central" text-anchor="end" font-size="14px" font-family="&quot;Helvetica Neue&quot;, Helvetica, Arial, sans-serif" xml:space="preserve">impact_propagation: </text><text class="speech-bubble-content property-value" x="149.04200744628906" y="37" alignment-baseline="central" font-size="14px" font-family="&quot;Helvetica Neue&quot;, Helvetica, Arial, sans-serif">PROTECTION</text></g><g class="speech-bubble relationship-speech-bubble" transform="translate(163.7037473039454,112.37434684478058) "><path class="speech-bubble-outline" transform="scale(-1,1) " d="M 0 0 L 16 12 L 237.4520034790039 12 A 4 4 0 0 1 241.4520034790039 16 L 241.4520034790039 44 A 4 4 0 0 1 237.4520034790039 48 L 16 48 A 4 4 0 0 1 12 44 L 12 16 Z" fill="rgb(255, 255, 255)" stroke="rgba(0, 0, 0, 0.498039)" stroke-width="1px"/><text class="speech-bubble-content property-key" x="-104.40999603271484" y="23" alignment-baseline="central" text-anchor="end" font-size="14px" font-family="&quot;Helvetica Neue&quot;, Helvetica, Arial, sans-serif" xml:space="preserve">impact_group: </text><text class="speech-bubble-content property-value" x="-104.40999603271484" y="23" alignment-baseline="central" font-size="14px" font-family="&quot;Helvetica Neue&quot;, Helvetica, Arial, sans-serif">power</text><text class="speech-bubble-content property-key" x="-104.40999603271484" y="37" alignment-baseline="central" text-anchor="end" font-size="14px" font-family="&quot;Helvetica Neue&quot;, Helvetica, Arial, sans-serif" xml:space="preserve">impact_propagation: </text><text class="speech-bubble-content property-value" x="-104.40999603271484" y="37" alignment-baseline="central" font-size="14px" font-family="&quot;Helvetica Neue&quot;, Helvetica, Arial, sans-serif">PROTECTION</text></g><g class="speech-bubble relationship-speech-bubble" transform="translate(302.93538874642286,-27.000000000000007) "><path class="speech-bubble-outline" transform="scale(1,1) " d="M 0 0 L -4 12 L -115.39500427246094 12 A 4 4 0 0 0 -119.39500427246094 16 L -119.39500427246094 44 A 4 4 0 0 0 -115.39500427246094 48 L 115.39500427246094 48 A 4 4 0 0 0 119.39500427246094 44 L 119.39500427246094 16 A 4 4 0 0 0 115.39500427246094 12 L 4 12 Z" fill="rgb(255, 255, 255)" stroke="rgba(0, 0, 0, 0.498039)" stroke-width="1px"/><text class="speech-bubble-content property-key" x="17.647003173828125" y="23" alignment-baseline="central" text-anchor="end" font-size="14px" font-family="&quot;Helvetica Neue&quot;, Helvetica, Arial, sans-serif" xml:space="preserve">impact_group: </text><text class="speech-bubble-content property-key" x="17.647003173828125" y="37" alignment-baseline="central" text-anchor="end" font-size="14px" font-family="&quot;Helvetica Neue&quot;, Helvetica, Arial, sans-serif" xml:space="preserve">impact_propagation: </text><text class="speech-bubble-content property-value" x="17.647003173828125" y="23" alignment-baseline="central" font-size="14px" font-family="&quot;Helvetica Neue&quot;, Helvetica, Arial, sans-serif">aircon</text><text class="speech-bubble-content property-value" x="17.647003173828125" y="37" alignment-baseline="central" font-size="14px" font-family="&quot;Helvetica Neue&quot;, Helvetica, Arial, sans-serif">DEGRADATION</text></g></g><g class="layer overlay"><circle class="node overlay" r="27.393612129780067" stroke="none" fill="rgba(255, 255, 255, 0)" cx="33.00000000000001" cy="-27.000000000000007"/><circle class="node ring" r="32.39361212978007" fill="none" stroke="rgba(255, 255, 255, 0)" stroke-width="10px" cx="33.00000000000001" cy="-27.000000000000007"/><circle class="node overlay" r="48.31698066728258" stroke="none" fill="rgba(255, 255, 255, 0)" cx="-269.6000000000005" cy="363.5200000000002"/><circle class="node ring" r="53.31698066728258" fill="none" stroke="rgba(255, 255, 255, 0)" stroke-width="10px" cx="-269.6000000000005" cy="363.5200000000002"/><path class="relationship overlay" fill="rgba(255, 255, 255, 0)" stroke="rgba(255, 255, 255, 0)" stroke-width="10px" transform="translate(33.00000000000001,-27.000000000000007) rotate(127.77082589593459)" d="M 32.39361212978007 1 L 432.72009324519263 1 L 432.72009324519263 4 L 440.72009324519263 0 L 432.72009324519263 -4 L 432.72009324519263 -1 L 32.39361212978007 -1 Z"/><circle class="node overlay" r="62.94984196579333" stroke="none" fill="rgba(255, 255, 255, 0)" cx="324.20228027343774" cy="283.5199999999999"/><circle class="node ring" r="67.94984196579333" fill="none" stroke="rgba(255, 255, 255, 0)" stroke-width="10px" cx="324.20228027343774" cy="283.5199999999999"/><path class="relationship overlay" fill="rgba(255, 255, 255, 0)" stroke="rgba(255, 255, 255, 0)" stroke-width="10px" transform="translate(33.00000000000001,-27.000000000000007) rotate(46.838794780894574)" d="M 32.39361212978007 1 L 349.75127200555835 1 L 349.75127200555835 4 L 357.75127200555835 0 L 349.75127200555835 -4 L 349.75127200555835 -1 L 32.39361212978007 -1 Z"/><circle class="node overlay" r="28.501516277559524" stroke="none" fill="rgba(255, 255, 255, 0)" cx="581.9786816406252" cy="-27.000000000000007"/><circle class="node ring" r="33.501516277559524" fill="none" stroke="rgba(255, 255, 255, 0)" stroke-width="10px" cx="581.9786816406252" cy="-27.000000000000007"/><path class="relationship overlay" fill="rgba(255, 255, 255, 0)" stroke="rgba(255, 255, 255, 0)" stroke-width="10px" transform="translate(33.00000000000001,-27.000000000000007) rotate(0)" d="M 32.39361212978007 1 L 507.47716536306564 1 L 507.47716536306564 4 L 515.4771653630656 0 L 507.47716536306564 -4 L 507.47716536306564 -1 L 32.39361212978007 -1 Z"/><circle class="node overlay" r="18.514786749969698" stroke="none" fill="rgba(255, 255, 255, 0)" cx="33.00000000000001" cy="-196.42206298828148"/><circle class="node ring" r="23.514786749969698" fill="none" stroke="rgba(255, 255, 255, 0)" stroke-width="10px" cx="33.00000000000001" cy="-196.42206298828148"/><path class="relationship overlay" fill="rgba(255, 255, 255, 0)" stroke="rgba(255, 255, 255, 0)" stroke-width="10px" transform="translate(33.00000000000001,-196.42206298828148) rotate(90)" d="M 23.514786749969698 1 L 129.0284508585014 1 L 129.0284508585014 4 L 137.0284508585014 0 L 129.0284508585014 -4 L 129.0284508585014 -1 L 23.514786749969698 -1 Z"/><circle class="node overlay" r="18.514786749969698" stroke="none" fill="rgba(255, 255, 255, 0)" cx="155.2022802734376" cy="-196.42206298828148"/><circle class="node ring" r="23.514786749969698" fill="none" stroke="rgba(255, 255, 255, 0)" stroke-width="10px" cx="155.2022802734376" cy="-196.42206298828148"/><path class="relationship overlay" fill="rgba(255, 255, 255, 0)" stroke="rgba(255, 255, 255, 0)" stroke-width="10px" transform="translate(155.2022802734376,-196.42206298828148) rotate(125.80249925810016)" d="M 23.514786749969698 1 L 168.5016552441674 1 L 168.5016552441674 4 L 176.5016552441674 0 L 168.5016552441674 -4 L 168.5016552441674 -1 L 23.514786749969698 -1 Z"/><circle class="node overlay" r="41.82356649331434" stroke="none" fill="rgba(255, 255, 255, 0)" cx="33.00000000000001" cy="-391.5949047851567"/><circle class="node ring" r="46.82356649331434" fill="none" stroke="rgba(255, 255, 255, 0)" stroke-width="10px" cx="33.00000000000001" cy="-391.5949047851567"/><path class="relationship overlay" fill="rgba(255, 255, 255, 0)" stroke="rgba(255, 255, 255, 0)" stroke-width="10px" transform="translate(33.00000000000001,-391.5949047851567) rotate(90)" d="M 46.82356649331434 1 L 163.6580550469055 1 L 163.6580550469055 4 L 171.6580550469055 0 L 163.6580550469055 -4 L 163.6580550469055 -1 L 46.82356649331434 -1 Z"/><circle class="node overlay" r="36.630579194643325" stroke="none" fill="rgba(255, 255, 255, 0)" cx="190.30805664062467" cy="-351.60192626953136"/><circle class="node ring" r="41.630579194643325" fill="none" stroke="rgba(255, 255, 255, 0)" stroke-width="10px" cx="190.30805664062467" cy="-351.60192626953136"/><path class="relationship overlay" fill="rgba(255, 255, 255, 0)" stroke="rgba(255, 255, 255, 0)" stroke-width="10px" transform="translate(190.30805664062467,-351.60192626953136) rotate(102.74724564380075)" d="M 41.630579194643325 1 L 127.58645618147432 1 L 127.58645618147432 4 L 135.58645618147432 0 L 127.58645618147432 -4 L 127.58645618147432 -1 L 41.630579194643325 -1 Z"/></g></svg>