<svg xmlns="http://www.w3.org/2000/svg" class="graphdiagram" viewBox="-779.2474773792358 -471.29425604778146 1551 970"><g class="layer relationships"><g class="related-pair"><g class="relationship" transform="translate(33.00000000000001,-27.000000000000007) rotate(113.59125880467683)"><path class="relationship" d="M 32.39361212978007 1 L 372.45612868828863 1 L 372.45612868828863 4 L 380.45612868828863 0 L 372.45612868828863 -4 L 372.45612868828863 -1 L 32.39361212978007 -1 Z" fill="rgba(0, 0, 0, 0.298039)" stroke="rgb(51, 51, 51)" stroke-width="0px"/><text class="type" text-anchor="middle" baseline-shift="30%" alignment-baseline="alphabetic" transform="rotate(180)" x="-202.42487040903433" y="0" font-size="14px" font-family="&quot;Helvetica Neue&quot;, Helvetica, Arial, sans-serif">:DEPENDS_ON</text></g></g><g class="related-pair"><g class="relationship" transform="translate(33.00000000000001,-27.000000000000007) rotate(39.256770982086174)"><path class="relationship" d="M 32.39361212978007 1 L 430.56343431794346 1 L 430.56343431794346 4 L 438.56343431794346 0 L 430.56343431794346 -4 L 430.56343431794346 -1 L 32.39361212978007 -1 Z" fill="rgba(0, 0, 0, 0.298039)" stroke="rgb(51, 51, 51)" stroke-width="0px"/><text class="type" text-anchor="middle" baseline-shift="30%" alignment-baseline="alphabetic" x="231.47852322386177" y="0" font-size="14px" font-family="&quot;Helvetica Neue&quot;, Helvetica, Arial, sans-serif">:DEPENDS_ON</text></g></g><g class="related-pair"><g class="relationship" transform="translate(33.00000000000001,-27.000000000000007) rotate(0)"><path class="relationship" d="M 32.39361212978007 1 L 507.47716536306564 1 L 507.47716536306564 4 L 515.4771653630656 0 L 507.47716536306564 -4 L 507.47716536306564 -1 L 32.39361212978007 -1 Z" fill="rgba(0, 0, 0, 0.298039)" stroke="rgb(51, 51, 51)" stroke-width="0px"/><text class="type" text-anchor="middle" baseline-shift="30%" alignment-baseline="alphabetic" x="269.93538874642286" y="0" font-size="14px" font-family="&quot;Helvetica Neue&quot;, Helvetica, Arial, sans-serif">:DEPENDS_ON</text></g></g><g class="related-pair"><g class="relationship" transform="translate(33.00000000000001,-196.42206298828148) rotate(90)"><path class="relationship" d="M 23.514786749969698 1 L 129.0284508585014 1 L 129.0284508585014 4 L 137.0284508585014 0 L 129.0284508585014 -4 L 129.0284508585014 -1 L 23.514786749969698 -1 Z" fill="rgba(0, 0, 0, 0.298039)" stroke="rgb(51, 51, 51)" stroke-width="0px"/><text class="type" text-anchor="middle" baseline-shift="30%" alignment-baseline="alphabetic" x="76.27161880423554" y="0" font-size="14px" font-family="&quot;Helvetica Neue&quot;, Helvetica, Arial, sans-serif">:HOSTED_ON</text></g></g><g class="related-pair"><g class="relationship" transform="translate(155.2022802734376,-196.42206298828148) rotate(125.80249925810016)"><path class="relationship" d="M 23.514786749969698 1 L 168.5016552441674 1 L 168.5016552441674 4 L 176.5016552441674 0 L 168.5016552441674 -4 L 168.5016552441674 -1 L 23.514786749969698 -1 Z" fill="rgba(0, 0, 0, 0.298039)" stroke="rgb(51, 51, 51)" stroke-width="0px"/><text class="type" text-anchor="middle" baseline-shift="30%" alignment-baseline="alphabetic" transform="rotate(180)" x="-96.00822099706856" y="0" font-size="14px" font-family="&quot;Helvetica Neue&quot;, Helvetica, Arial, sans-serif">:HOSTED_ON</text></g></g><g class="related-pair"><g class="relationship" transform="translate(33.00000000000001,-351.60192626953136) rotate(90)"><path class="relationship" d="M 46.82356649331434 1 L 123.66507653128019 1 L 123.66507653128019 4 L 131.6650765312802 0 L 123.66507653128019 -4 L 123.66507653128019 -1 L 46.82356649331434 -1 Z" fill="rgba(0, 0, 0, 0.298039)" stroke="rgb(51, 51, 51)" stroke-width="0px"/><text class="type" text-anchor="middle" baseline-shift="30%" alignment-baseline="alphabetic" x="85.24432151229726" y="0" font-size="14px" font-family="&quot;Helvetica Neue&quot;, Helvetica, Arial, sans-serif">:RUNS_ON</text></g></g><g class="related-pair"><g class="relationship" transform="translate(155.2022802734376,-351.60192626953136) rotate(90)"><path class="relationship" d="M 41.630579194643325 1 L 123.66507653128019 1 L 123.66507653128019 4 L 131.6650765312802 0 L 123.66507653128019 -4 L 123.66507653128019 -1 L 41.630579194643325 -1 Z" fill="rgba(0, 0, 0, 0.298039)" stroke="rgb(51, 51, 51)" stroke-width="0px"/><text class="type" text-anchor="middle" baseline-shift="30%" alignment-baseline="alphabetic" x="82.64782786296175" y="0" font-size="14px" font-family="&quot;Helvetica Neue&quot;, Helvetica, Arial, sans-serif">:RUNS_ON</text></g></g><g class="related-pair"><g class="relationship" transform="translate(33.00000000000001,-27.000000000000007) rotate(168.34732250991362)"><path class="relationship" d="M 32.39361212978007 1 L 594.3266841444222 1 L 594.3266841444222 4 L 602.3266841444222 0 L 594.3266841444222 -4 L 594.3266841444222 -1 L 32.39361212978007 -1 Z" fill="rgba(0, 0, 0, 0.298039)" stroke="rgb(51, 51, 51)" stroke-width="0px"/><text class="type" text-anchor="middle" baseline-shift="30%" alignment-baseline="alphabetic" transform="rotate(180)" x="-313.36014813710113" y="0" font-size="14px" font-family="&quot;Helvetica Neue&quot;, Helvetica, Arial, sans-serif">:DEPENDS_ON</text></g></g><g class="related-pair"><g class="relationship" transform="translate(33.00000000000001,-27.000000000000007) rotate(-176.50714413970275)"><path class="relationship" d="M 32.39361212978007 1 L 582.3835397679404 1 L 582.3835397679404 4 L 590.3835397679404 0 L 582.3835397679404 -4 L 582.3835397679404 -1 L 32.39361212978007 -1 Z" fill="rgba(0, 0, 0, 0.298039)" stroke="rgb(51, 51, 51)" stroke-width="0px"/><text class="type" text-anchor="middle" baseline-shift="30%" alignment-baseline="alphabetic" transform="rotate(180)" x="-307.38857594886025" y="0" font-size="14px" font-family="&quot;Helvetica Neue&quot;, Helvetica, Arial, sans-serif">:DEPENDS_ON</text></g></g></g><g class="layer nodes"><circle class="node node-id-0" r="26.893612129780067" fill="rgb(247, 247, 249)" stroke="rgba(0, 0, 0, 0.298039)" stroke-width="1px" cx="33.00000000000001" cy="-27.000000000000007"/><g class="caption"><text class="caption node" text-anchor="middle" alignment-baseline="central" x="33.00000000000001" y="-27.000000000000007" fill="rgb(51, 51, 51)" font-size="14px" font-family="&quot;Helvetica Neue&quot;, Helvetica, Arial, sans-serif">Server</text></g><circle class="node node-id-1" r="47.81698066728258" fill="rgb(247, 247, 249)" stroke="rgba(0, 0, 0, 0.298039)" stroke-width="1px" cx="-140.60000000000028" cy="370.52000000000027"/><g class="caption"><text class="caption node" text-anchor="middle" alignment-baseline="central" x="-140.60000000000028" y="370.52000000000027" fill="rgb(51, 51, 51)" font-size="14px" font-family="&quot;Helvetica Neue&quot;, Helvetica, Arial, sans-serif">PowerSupply</text></g><circle class="node node-id-2" r="62.44984196579333" fill="rgb(247, 247, 249)" stroke="rgba(0, 0, 0, 0.298039)" stroke-width="1px" cx="425.2022802734389" cy="293.52"/><g class="caption"><text class="caption node" text-anchor="middle" alignment-baseline="central" x="425.2022802734389" y="293.52" fill="rgb(51, 51, 51)" font-size="14px" font-family="&quot;Helvetica Neue&quot;, Helvetica, Arial, sans-serif">BackUpGenerator</text></g><circle class="node node-id-3" r="28.001516277559524" fill="rgb(247, 247, 249)" stroke="rgba(0, 0, 0, 0.298039)" stroke-width="1px" cx="581.9786816406252" cy="-27.000000000000007"/><g class="caption"><text class="caption node" text-anchor="middle" alignment-baseline="central" x="581.9786816406252" y="-27.000000000000007" fill="rgb(51, 51, 51)" font-size="14px" font-family="&quot;Helvetica Neue&quot;, Helvetica, Arial, sans-serif">AirCon</text></g><circle class="node node-id-4" r="18.014786749969698" fill="rgb(247, 247, 249)" stroke="rgba(0, 0, 0, 0.298039)" stroke-width="1px" cx="33.00000000000001" cy="-196.42206298828148"/><g class="caption"><text class="caption node" text-anchor="middle" alignment-baseline="central" x="33.00000000000001" y="-196.42206298828148" fill="rgb(51, 51, 51)" font-size="14px" font-family="&quot;Helvetica Neue&quot;, Helvetica, Arial, sans-serif">VM</text></g><circle class="node node-id-5" r="18.014786749969698" fill="rgb(247, 247, 249)" stroke="rgba(0, 0, 0, 0.298039)" stroke-width="1px" cx="155.2022802734376" cy="-196.42206298828148"/><g class="caption"><text class="caption node" text-anchor="middle" alignment-baseline="central" x="155.2022802734376" y="-196.42206298828148" fill="rgb(51, 51, 51)" font-size="14px" font-family="&quot;Helvetica Neue&quot;, Helvetica, Arial, sans-serif">VM</text></g><circle class="node node-id-6" r="41.32356649331434" fill="rgb(247, 247, 249)" stroke="rgba(0, 0, 0, 0.298039)" stroke-width="1px" cx="33.00000000000001" cy="-351.60192626953136"/><g class="caption"><text class="caption node" text-anchor="middle" alignment-baseline="central" x="33.00000000000001" y="-351.60192626953136" fill="rgb(51, 51, 51)" font-size="14px" font-family="&quot;Helvetica Neue&quot;, Helvetica, Arial, sans-serif">Application</text></g><circle class="node node-id-7" r="36.130579194643325" fill="rgb(247, 247, 249)" stroke="rgba(0, 0, 0, 0.298039)" stroke-width="1px" cx="155.2022802734376" cy="-351.60192626953136"/><g class="caption"><text class="caption node" text-anchor="middle" alignment-baseline="central" x="155.2022802734376" y="-351.60192626953136" fill="rgb(51, 51, 51)" font-size="14px" font-family="&quot;Helvetica Neue&quot;, Helvetica, Arial, sans-serif">Database</text></g><circle class="node node-id-8" r="27.875152676657027" fill="rgb(247, 247, 249)" stroke="rgba(0, 0, 0, 0.298039)" stroke-width="1px" cx="-589.5999999999992" cy="101.39807373046895"/><g class="caption"><text class="caption node" text-anchor="middle" alignment-baseline="central" x="-589.5999999999992" y="101.39807373046895" fill="rgb(51, 51, 51)" font-size="14px" font-family="&quot;Helvetica Neue&quot;, Helvetica, Arial, sans-serif">Switch</text></g><circle class="node node-id-9" r="27.875152676657027" fill="rgb(247, 247, 249)" stroke="rgba(0, 0, 0, 0.298039)" stroke-width="1px" cx="-589.5999999999992" cy="-65.00192626953124"/><g class="caption"><text class="caption node" text-anchor="middle" alignment-baseline="central" x="-589.5999999999992" y="-65.00192626953124" fill="rgb(51, 51, 51)" font-size="14px" font-family="&quot;Helvetica Neue&quot;, Helvetica, Arial, sans-serif">Switch</text></g></g><g class="layer properties"><g class="speech-bubble relationship-speech-bubble" transform="translate(-48.01230054397579,158.50696838848634) "><path class="speech-bubble-outline" transform="scale(1,1) " d="M 0 0 L 16 12 L 237.4520034790039 12 A 4 4 0 0 1 241.4520034790039 16 L 241.4520034790039 44 A 4 4 0 0 1 237.4520034790039 48 L 16 48 A 4 4 0 0 1 12 44 L 12 16 Z" fill="rgb(255, 255, 255)" stroke="rgba(0, 0, 0, 0.498039)" stroke-width="1px"/><text class="speech-bubble-content property-key" x="149.04200744628906" y="23" alignment-baseline="central" text-anchor="end" font-size="14px" font-family="&quot;Helvetica Neue&quot;, Helvetica, Arial, sans-serif" xml:space="preserve">impact_group: </text><text class="speech-bubble-content property-value" x="149.04200744628906" y="23" alignment-baseline="central" font-size="14px" font-family="&quot;Helvetica Neue&quot;, Helvetica, Arial, sans-serif">power</text><text class="speech-bubble-content property-key" x="149.04200744628906" y="37" alignment-baseline="central" text-anchor="end" font-size="14px" font-family="&quot;Helvetica Neue&quot;, Helvetica, Arial, sans-serif" xml:space="preserve">impact_propagation: </text><text class="speech-bubble-content property-value" x="149.04200744628906" y="37" alignment-baseline="central" font-size="14px" font-family="&quot;Helvetica Neue&quot;, Helvetica, Arial, sans-serif">PROTECTION</text></g><g class="speech-bubble relationship-speech-bubble" transform="translate(212.2379566214378,119.47887772669301) "><path class="speech-bubble-outline" transform="scale(-1,1) " d="M 0 0 L 16 12 L 237.4520034790039 12 A 4 4 0 0 1 241.4520034790039 16 L 241.4520034790039 44 A 4 4 0 0 1 237.4520034790039 48 L 16 48 A 4 4 0 0 1 12 44 L 12 16 Z" fill="rgb(255, 255, 255)" stroke="rgba(0, 0, 0, 0.498039)" stroke-width="1px"/><text class="speech-bubble-content property-key" x="-104.40999603271484" y="23" alignment-baseline="central" text-anchor="end" font-size="14px" font-family="&quot;Helvetica Neue&quot;, Helvetica, Arial, sans-serif" xml:space="preserve">impact_group: </text><text class="speech-bubble-content property-value" x="-104.40999603271484" y="23" alignment-baseline="central" font-size="14px" font-family="&quot;Helvetica Neue&quot;, Helvetica, Arial, sans-serif">power</text><text class="speech-bubble-content property-key" x="-104.40999603271484" y="37" alignment-baseline="central" text-anchor="end" font-size="14px" font-family="&quot;Helvetica Neue&quot;, Helvetica, Arial, sans-serif" xml:space="preserve">impact_propagation: </text><text class="speech-bubble-content property-value" x="-104.40999603271484" y="37" alignment-baseline="central" font-size="14px" font-family="&quot;Helvetica Neue&quot;, Helvetica, Arial, sans-serif">PROTECTION</text></g><g class="speech-bubble relationship-speech-bubble" transform="translate(302.93538874642286,-27.000000000000007) "><path class="speech-bubble-outline" transform="scale(1,1) " d="M 0 0 L -4 12 L -115.39500427246094 12 A 4 4 0 0 0 -119.39500427246094 16 L -119.39500427246094 44 A 4 4 0 0 0 -115.39500427246094 48 L 115.39500427246094 48 A 4 4 0 0 0 119.39500427246094 44 L 119.39500427246094 16 A 4 4 0 0 0 115.39500427246094 12 L 4 12 Z" fill="rgb(255, 255, 255)" stroke="rgba(0, 0, 0, 0.498039)" stroke-width="1px"/><text class="speech-bubble-content property-key" x="17.647003173828125" y="23" alignment-baseline="central" text-anchor="end" font-size="14px" font-family="&quot;Helvetica Neue&quot;, Helvetica, Arial, sans-serif" xml:space="preserve">impact_group: </text><text class="speech-bubble-content property-key" x="17.647003173828125" y="37" alignment-baseline="central" text-anchor="end" font-size="14px" font-family="&quot;Helvetica Neue&quot;, Helvetica, Arial, sans-serif" xml:space="preserve">impact_propagation: </text><text class="speech-bubble-content property-value" x="17.647003173828125" y="23" alignment-baseline="central" font-size="14px" font-family="&quot;Helvetica Neue&quot;, Helvetica, Arial, sans-serif">aircon</text><text class="speech-bubble-content property-value" x="17.647003173828125" y="37" alignment-baseline="central" font-size="14px" font-family="&quot;Helvetica Neue&quot;, Helvetica, Arial, sans-serif">DEGRADATION</text></g><g class="speech-bubble relationship-speech-bubble" transform="translate(-273.9017846570578,36.29199803149607) "><path class="speech-bubble-outline" transform="scale(1,1) " d="M 0 0 L 16 12 L 237.4520034790039 12 A 4 4 0 0 1 241.4520034790039 16 L 241.4520034790039 44 A 4 4 0 0 1 237.4520034790039 48 L 16 48 A 4 4 0 0 1 12 44 L 12 16 Z" fill="rgb(255, 255, 255)" stroke="rgba(0, 0, 0, 0.498039)" stroke-width="1px"/><text class="speech-bubble-content property-key" x="149.04200744628906" y="23" alignment-baseline="central" text-anchor="end" font-size="14px" font-family="&quot;Helvetica Neue&quot;, Helvetica, Arial, sans-serif" xml:space="preserve">impact_group: </text><text class="speech-bubble-content property-key" x="149.04200744628906" y="37" alignment-baseline="central" text-anchor="end" font-size="14px" font-family="&quot;Helvetica Neue&quot;, Helvetica, Arial, sans-serif" xml:space="preserve">impact_propagation: </text><text class="speech-bubble-content property-value" x="149.04200744628906" y="23" alignment-baseline="central" font-size="14px" font-family="&quot;Helvetica Neue&quot;, Helvetica, Arial, sans-serif">network</text><text class="speech-bubble-content property-value" x="149.04200744628906" y="37" alignment-baseline="central" font-size="14px" font-family="&quot;Helvetica Neue&quot;, Helvetica, Arial, sans-serif">PROTECTION</text></g><g class="speech-bubble relationship-speech-bubble" transform="translate(-273.817571769164,-45.72736707447542) "><path class="speech-bubble-outline" transform="scale(1,1) " d="M 0 0 L -4 12 L -110.72600173950195 12 A 4 4 0 0 0 -114.72600173950195 16 L -114.72600173950195 44 A 4 4 0 0 0 -110.72600173950195 48 L 110.72600173950195 48 A 4 4 0 0 0 114.72600173950195 44 L 114.72600173950195 16 A 4 4 0 0 0 110.72600173950195 12 L 4 12 Z" fill="rgb(255, 255, 255)" stroke="rgba(0, 0, 0, 0.498039)" stroke-width="1px"/><text class="speech-bubble-content property-key" x="22.31600570678711" y="23" alignment-baseline="central" text-anchor="end" font-size="14px" font-family="&quot;Helvetica Neue&quot;, Helvetica, Arial, sans-serif" xml:space="preserve">impact_group: </text><text class="speech-bubble-content property-key" x="22.31600570678711" y="37" alignment-baseline="central" text-anchor="end" font-size="14px" font-family="&quot;Helvetica Neue&quot;, Helvetica, Arial, sans-serif" xml:space="preserve">impact_propagation: </text><text class="speech-bubble-content property-value" x="22.31600570678711" y="23" alignment-baseline="central" font-size="14px" font-family="&quot;Helvetica Neue&quot;, Helvetica, Arial, sans-serif">network</text><text class="speech-bubble-content property-value" x="22.31600570678711" y="37" alignment-baseline="central" font-size="14px" font-family="&quot;Helvetica Neue&quot;, Helvetica, Arial, sans-serif">PROTECTION</text></g></g><g class="layer overlay"><circle class="node overlay" r="27.393612129780067" stroke="none" fill="rgba(255, 255, 255, 0)" cx="33.00000000000001" cy="-27.000000000000007"/><circle class="node ring" r="32.39361212978007" fill="none" stroke="rgba(255, 255, 255, 0)" stroke-width="10px" cx="33.00000000000001" cy="-27.000000000000007"/><circle class="node overlay" r="48.31698066728258" stroke="none" fill="rgba(255, 255, 255, 0)" cx="-140.60000000000028" cy="370.52000000000027"/><circle class="node ring" r="53.31698066728258" fill="none" stroke="rgba(255, 255, 255, 0)" stroke-width="10px" cx="-140.60000000000028" cy="370.52000000000027"/><path class="relationship overlay" fill="rgba(255, 255, 255, 0)" stroke="rgba(255, 255, 255, 0)" stroke-width="10px" transform="translate(33.00000000000001,-27.000000000000007) rotate(113.59125880467683)" d="M 32.39361212978007 1 L 372.45612868828863 1 L 372.45612868828863 4 L 380.45612868828863 0 L 372.45612868828863 -4 L 372.45612868828863 -1 L 32.39361212978007 -1 Z"/><circle class="node overlay" r="62.94984196579333" stroke="none" fill="rgba(255, 255, 255, 0)" cx="425.2022802734389" cy="293.52"/><circle class="node ring" r="67.94984196579333" fill="none" stroke="rgba(255, 255, 255, 0)" stroke-width="10px" cx="425.2022802734389" cy="293.52"/><path class="relationship overlay" fill="rgba(255, 255, 255, 0)" stroke="rgba(255, 255, 255, 0)" stroke-width="10px" transform="translate(33.00000000000001,-27.000000000000007) rotate(39.256770982086174)" d="M 32.39361212978007 1 L 430.56343431794346 1 L 430.56343431794346 4 L 438.56343431794346 0 L 430.56343431794346 -4 L 430.56343431794346 -1 L 32.39361212978007 -1 Z"/><circle class="node overlay" r="28.501516277559524" stroke="none" fill="rgba(255, 255, 255, 0)" cx="581.9786816406252" cy="-27.000000000000007"/><circle class="node ring" r="33.501516277559524" fill="none" stroke="rgba(255, 255, 255, 0)" stroke-width="10px" cx="581.9786816406252" cy="-27.000000000000007"/><path class="relationship overlay" fill="rgba(255, 255, 255, 0)" stroke="rgba(255, 255, 255, 0)" stroke-width="10px" transform="translate(33.00000000000001,-27.000000000000007) rotate(0)" d="M 32.39361212978007 1 L 507.47716536306564 1 L 507.47716536306564 4 L 515.4771653630656 0 L 507.47716536306564 -4 L 507.47716536306564 -1 L 32.39361212978007 -1 Z"/><circle class="node overlay" r="18.514786749969698" stroke="none" fill="rgba(255, 255, 255, 0)" cx="33.00000000000001" cy="-196.42206298828148"/><circle class="node ring" r="23.514786749969698" fill="none" stroke="rgba(255, 255, 255, 0)" stroke-width="10px" cx="33.00000000000001" cy="-196.42206298828148"/><path class="relationship overlay" fill="rgba(255, 255, 255, 0)" stroke="rgba(255, 255, 255, 0)" stroke-width="10px" transform="translate(33.00000000000001,-196.42206298828148) rotate(90)" d="M 23.514786749969698 1 L 129.0284508585014 1 L 129.0284508585014 4 L 137.0284508585014 0 L 129.0284508585014 -4 L 129.0284508585014 -1 L 23.514786749969698 -1 Z"/><circle class="node overlay" r="18.514786749969698" stroke="none" fill="rgba(255, 255, 255, 0)" cx="155.2022802734376" cy="-196.42206298828148"/><circle class="node ring" r="23.514786749969698" fill="none" stroke="rgba(255, 255, 255, 0)" stroke-width="10px" cx="155.2022802734376" cy="-196.42206298828148"/><path class="relationship overlay" fill="rgba(255, 255, 255, 0)" stroke="rgba(255, 255, 255, 0)" stroke-width="10px" transform="translate(155.2022802734376,-196.42206298828148) rotate(125.80249925810016)" d="M 23.514786749969698 1 L 168.5016552441674 1 L 168.5016552441674 4 L 176.5016552441674 0 L 168.5016552441674 -4 L 168.5016552441674 -1 L 23.514786749969698 -1 Z"/><circle class="node overlay" r="41.82356649331434" stroke="none" fill="rgba(255, 255, 255, 0)" cx="33.00000000000001" cy="-351.60192626953136"/><circle class="node ring" r="46.82356649331434" fill="none" stroke="rgba(255, 255, 255, 0)" stroke-width="10px" cx="33.00000000000001" cy="-351.60192626953136"/><path class="relationship overlay" fill="rgba(255, 255, 255, 0)" stroke="rgba(255, 255, 255, 0)" stroke-width="10px" transform="translate(33.00000000000001,-351.60192626953136) rotate(90)" d="M 46.82356649331434 1 L 123.66507653128019 1 L 123.66507653128019 4 L 131.6650765312802 0 L 123.66507653128019 -4 L 123.66507653128019 -1 L 46.82356649331434 -1 Z"/><circle class="node overlay" r="36.630579194643325" stroke="none" fill="rgba(255, 255, 255, 0)" cx="155.2022802734376" cy="-351.60192626953136"/><circle class="node ring" r="41.630579194643325" fill="none" stroke="rgba(255, 255, 255, 0)" stroke-width="10px" cx="155.2022802734376" cy="-351.60192626953136"/><path class="relationship overlay" fill="rgba(255, 255, 255, 0)" stroke="rgba(255, 255, 255, 0)" stroke-width="10px" transform="translate(155.2022802734376,-351.60192626953136) rotate(90)" d="M 41.630579194643325 1 L 123.66507653128019 1 L 123.66507653128019 4 L 131.6650765312802 0 L 123.66507653128019 -4 L 123.66507653128019 -1 L 41.630579194643325 -1 Z"/><circle class="node overlay" r="28.375152676657027" stroke="none" fill="rgba(255, 255, 255, 0)" cx="-589.5999999999992" cy="101.39807373046895"/><circle class="node ring" r="33.375152676657024" fill="none" stroke="rgba(255, 255, 255, 0)" stroke-width="10px" cx="-589.5999999999992" cy="101.39807373046895"/><path class="relationship overlay" fill="rgba(255, 255, 255, 0)" stroke="rgba(255, 255, 255, 0)" stroke-width="10px" transform="translate(33.00000000000001,-27.000000000000007) rotate(168.34732250991362)" d="M 32.39361212978007 1 L 594.3266841444222 1 L 594.3266841444222 4 L 602.3266841444222 0 L 594.3266841444222 -4 L 594.3266841444222 -1 L 32.39361212978007 -1 Z"/><circle class="node overlay" r="28.375152676657027" stroke="none" fill="rgba(255, 255, 255, 0)" cx="-589.5999999999992" cy="-65.00192626953124"/><circle class="node ring" r="33.375152676657024" fill="none" stroke="rgba(255, 255, 255, 0)" stroke-width="10px" cx="-589.5999999999992" cy="-65.00192626953124"/><path class="relationship overlay" fill="rgba(255, 255, 255, 0)" stroke="rgba(255, 255, 255, 0)" stroke-width="10px" transform="translate(33.00000000000001,-27.000000000000007) rotate(-176.50714413970275)" d="M 32.39361212978007 1 L 582.3835397679404 1 L 582.3835397679404 4 L 590.3835397679404 0 L 582.3835397679404 -4 L 582.3835397679404 -1 L 32.39361212978007 -1 Z"/></g></svg>