<svg xmlns="http://www.w3.org/2000/svg" class="graphdiagram" viewBox="-1194.7243286132823 -484.83040527343707 1551 970"><g class="layer relationships"><g class="related-pair"><g class="relationship" transform="translate(-604.0000000000009,349.00000000000136) rotate(-115.88604940896225)"><path class="relationship" d="M 65 4 L 284.2534006307706 4 L 284.2534006307706 16 L 316.2534006307706 0 L 284.2534006307706 -16 L 284.2534006307706 -4 L 65 -4 Z" fill="rgb(0, 0, 0)" stroke="rgb(51, 51, 51)" stroke-width="0px"/><text class="type" text-anchor="middle" baseline-shift="30%" alignment-baseline="alphabetic" x="-174.6267003153853" y="0" font-size="50px" font-family="&quot;Gill Sans&quot;, &quot;Gill Sans MT&quot;, Calibri, sans-serif" transform="rotate(180)">:IMPACTS</text></g></g><g class="related-pair"><g class="relationship" transform="translate(-604.0000000000009,349.00000000000136) rotate(-52.32170138993837)"><path class="relationship" d="M 65 4 L 336.37897575921573 4 L 336.37897575921573 16 L 368.37897575921573 0 L 336.37897575921573 -16 L 336.37897575921573 -4 L 65 -4 Z" fill="rgb(0, 0, 0)" stroke="rgb(51, 51, 51)" stroke-width="0px"/><text class="type" text-anchor="middle" baseline-shift="30%" alignment-baseline="alphabetic" x="200.68948787960787" y="0" font-size="50px" font-family="&quot;Gill Sans&quot;, &quot;Gill Sans MT&quot;, Calibri, sans-serif">:IMPACTS</text></g></g><g class="related-pair"><g class="relationship" transform="translate(-105.99999999999997,349.00000000000136) rotate(-124.20049983931794)"><path class="relationship" d="M 65 4 L 317.7141696270846 4 L 317.7141696270846 16 L 349.7141696270846 0 L 317.7141696270846 -16 L 317.7141696270846 -4 L 65 -4 Z" fill="rgb(0, 0, 0)" stroke="rgb(51, 51, 51)" stroke-width="0px"/><text class="type" text-anchor="middle" baseline-shift="30%" alignment-baseline="alphabetic" transform="rotate(180)" x="-191.3570848135423" y="0" font-size="50px" font-family="&quot;Gill Sans&quot;, &quot;Gill Sans MT&quot;, Calibri, sans-serif">:IMPACTS</text></g></g><g class="related-pair"><g class="relationship" transform="translate(-339.10693359375085,6.000000000000067) rotate(-90)"><path class="relationship" d="M 65 4 L 257.6608105468755 4 L 257.6608105468755 16 L 289.6608105468755 0 L 257.6608105468755 -16 L 257.6608105468755 -4 L 65 -4 Z" fill="rgb(0, 0, 0)" stroke="rgb(51, 51, 51)" stroke-width="0px"/><text class="type" text-anchor="middle" baseline-shift="30%" alignment-baseline="alphabetic" x="161.33040527343775" y="0" font-size="50px" font-family="&quot;Gill Sans&quot;, &quot;Gill Sans MT&quot;, Calibri, sans-serif">:IMPACTS</text></g></g><g class="related-pair"><g class="relationship" transform="translate(-339.10693359375085,6.000000000000067) rotate(-49.02449151863273)"><path class="relationship" d="M 65 4 L 316.4389199992348 4 L 316.4389199992348 16 L 348.4389199992348 0 L 316.4389199992348 -16 L 316.4389199992348 -4 L 65 -4 Z" fill="rgb(0, 0, 0)" stroke="rgb(51, 51, 51)" stroke-width="0px"/><text class="type" text-anchor="middle" baseline-shift="30%" alignment-baseline="alphabetic" x="190.7194599996174" y="0" font-size="50px" font-family="&quot;Gill Sans&quot;, &quot;Gill Sans MT&quot;, Calibri, sans-serif">:IMPACTS</text></g></g></g><g class="layer nodes"><circle class="node node-id-0" r="50" fill="rgb(255, 255, 255)" stroke="rgb(0, 0, 0)" stroke-width="8px" cx="-339.10693359375085" cy="6.000000000000067"/><circle class="node node-id-1" r="50" fill="rgb(255, 255, 255)" stroke="rgb(0, 0, 0)" stroke-width="8px" cx="-604.0000000000009" cy="349.00000000000136"/><circle class="node node-id-2" r="50" fill="rgb(255, 255, 255)" stroke="rgb(0, 0, 0)" stroke-width="8px" cx="-770.4486572265645" cy="6.000000000000067"/><circle class="node node-id-3" r="50" fill="rgb(255, 255, 255)" stroke="rgb(0, 0, 0)" stroke-width="8px" cx="-105.99999999999997" cy="349.00000000000136"/><circle class="node node-id-4" r="50" fill="rgb(255, 255, 255)" stroke="rgb(0, 0, 0)" stroke-width="8px" cx="-339.10693359375085" cy="-348.66081054687544"/><circle class="node node-id-5" r="50" fill="rgb(255, 255, 255)" stroke="rgb(0, 0, 0)" stroke-width="8px" cx="-67.99999999999997" cy="-306.14222900390644"/></g><g class="layer properties"/><g class="layer overlay"><circle class="node overlay" r="54" stroke="none" fill="rgba(255, 255, 255, 0)" cx="-339.10693359375085" cy="6.000000000000067"/><circle class="node ring" r="59" fill="none" stroke="rgba(255, 255, 255, 0)" stroke-width="10px" cx="-339.10693359375085" cy="6.000000000000067"/><circle class="node overlay" r="54" stroke="none" fill="rgba(255, 255, 255, 0)" cx="-604.0000000000009" cy="349.00000000000136"/><circle class="node ring" r="59" fill="none" stroke="rgba(255, 255, 255, 0)" stroke-width="10px" cx="-604.0000000000009" cy="349.00000000000136"/><circle class="node overlay" r="54" stroke="none" fill="rgba(255, 255, 255, 0)" cx="-770.4486572265645" cy="6.000000000000067"/><circle class="node ring" r="59" fill="none" stroke="rgba(255, 255, 255, 0)" stroke-width="10px" cx="-770.4486572265645" cy="6.000000000000067"/><path class="relationship overlay" fill="rgba(255, 255, 255, 0)" stroke="rgba(255, 255, 255, 0)" stroke-width="10px" transform="translate(-604.0000000000009,349.00000000000136) rotate(-115.88604940896225)" d="M 65 4 L 284.2534006307706 4 L 284.2534006307706 16 L 316.2534006307706 0 L 284.2534006307706 -16 L 284.2534006307706 -4 L 65 -4 Z"/><path class="relationship overlay" fill="rgba(255, 255, 255, 0)" stroke="rgba(255, 255, 255, 0)" stroke-width="10px" transform="translate(-604.0000000000009,349.00000000000136) rotate(-52.32170138993837)" d="M 65 4 L 336.37897575921573 4 L 336.37897575921573 16 L 368.37897575921573 0 L 336.37897575921573 -16 L 336.37897575921573 -4 L 65 -4 Z"/><circle class="node overlay" r="54" stroke="none" fill="rgba(255, 255, 255, 0)" cx="-105.99999999999997" cy="349.00000000000136"/><circle class="node ring" r="59" fill="none" stroke="rgba(255, 255, 255, 0)" stroke-width="10px" cx="-105.99999999999997" cy="349.00000000000136"/><path class="relationship overlay" fill="rgba(255, 255, 255, 0)" stroke="rgba(255, 255, 255, 0)" stroke-width="10px" transform="translate(-105.99999999999997,349.00000000000136) rotate(-124.20049983931794)" d="M 65 4 L 317.7141696270846 4 L 317.7141696270846 16 L 349.7141696270846 0 L 317.7141696270846 -16 L 317.7141696270846 -4 L 65 -4 Z"/><circle class="node overlay" r="54" stroke="none" fill="rgba(255, 255, 255, 0)" cx="-339.10693359375085" cy="-348.66081054687544"/><circle class="node ring" r="59" fill="none" stroke="rgba(255, 255, 255, 0)" stroke-width="10px" cx="-339.10693359375085" cy="-348.66081054687544"/><path class="relationship overlay" fill="rgba(255, 255, 255, 0)" stroke="rgba(255, 255, 255, 0)" stroke-width="10px" transform="translate(-339.10693359375085,6.000000000000067) rotate(-90)" d="M 65 4 L 257.6608105468755 4 L 257.6608105468755 16 L 289.6608105468755 0 L 257.6608105468755 -16 L 257.6608105468755 -4 L 65 -4 Z"/><circle class="node overlay" r="54" stroke="none" fill="rgba(255, 255, 255, 0)" cx="-67.99999999999997" cy="-306.14222900390644"/><circle class="node ring" r="59" fill="none" stroke="rgba(255, 255, 255, 0)" stroke-width="10px" cx="-67.99999999999997" cy="-306.14222900390644"/><path class="relationship overlay" fill="rgba(255, 255, 255, 0)" stroke="rgba(255, 255, 255, 0)" stroke-width="10px" transform="translate(-339.10693359375085,6.000000000000067) rotate(-49.02449151863273)" d="M 65 4 L 316.4389199992348 4 L 316.4389199992348 16 L 348.4389199992348 0 L 316.4389199992348 -16 L 316.4389199992348 -4 L 65 -4 Z"/></g></svg>